<mxfile host="app.diagrams.net" agent="Mozilla/5.0 (X11; Linux x86_64) AppleWebKit/537.36 (KHTML, like Gecko) Chrome/128.0.0.0 Safari/537.36 OPR/114.0.0.0" version="26.0.8">
  <diagram name="Página-1" id="hUZD1vpl5YjPBfnvqWsc">
    <mxGraphModel dx="2207" dy="759" grid="1" gridSize="10" guides="1" tooltips="1" connect="1" arrows="1" fold="1" page="1" pageScale="1" pageWidth="827" pageHeight="1169" math="0" shadow="0">
      <root>
        <mxCell id="0" />
        <mxCell id="1" parent="0" />
        <mxCell id="XV5S56shHWVsJy7ZyUxP-1" value="Cliente" style="swimlane;fontStyle=1;align=center;verticalAlign=top;childLayout=stackLayout;horizontal=1;startSize=26;horizontalStack=0;resizeParent=1;resizeParentMax=0;resizeLast=0;collapsible=1;marginBottom=0;whiteSpace=wrap;html=1;" vertex="1" parent="1">
          <mxGeometry x="140" y="280" width="630" height="250" as="geometry" />
        </mxCell>
        <mxCell id="XV5S56shHWVsJy7ZyUxP-2" value="- ID : int&lt;div&gt;- foto : str&amp;nbsp;&lt;br&gt;&lt;div&gt;- data_de_cadastro : str&lt;/div&gt;&lt;div&gt;- data_de_nascimento : str&lt;/div&gt;&lt;div&gt;- sexo : str&lt;/div&gt;&lt;div&gt;- nome : str&lt;/div&gt;&lt;div&gt;- cpf : str&lt;/div&gt;&lt;div&gt;- rg : str&lt;/div&gt;&lt;div&gt;- profissão : str&lt;/div&gt;&lt;div&gt;- numero_telefone : str&lt;/div&gt;&lt;div&gt;- email : str&lt;/div&gt;&lt;div&gt;&lt;br&gt;&lt;/div&gt;&lt;/div&gt;" style="text;strokeColor=none;fillColor=none;align=left;verticalAlign=top;spacingLeft=4;spacingRight=4;overflow=hidden;rotatable=0;points=[[0,0.5],[1,0.5]];portConstraint=eastwest;whiteSpace=wrap;html=1;" vertex="1" parent="XV5S56shHWVsJy7ZyUxP-1">
          <mxGeometry y="26" width="630" height="174" as="geometry" />
        </mxCell>
        <mxCell id="XV5S56shHWVsJy7ZyUxP-3" value="" style="line;strokeWidth=1;fillColor=none;align=left;verticalAlign=middle;spacingTop=-1;spacingLeft=3;spacingRight=3;rotatable=0;labelPosition=right;points=[];portConstraint=eastwest;strokeColor=inherit;" vertex="1" parent="XV5S56shHWVsJy7ZyUxP-1">
          <mxGeometry y="200" width="630" height="8" as="geometry" />
        </mxCell>
        <mxCell id="XV5S56shHWVsJy7ZyUxP-4" value="+ Cliente(ID : int, DC : str, DN : str, sexo : str, nome : str, cpf : str, rg : str, pfs : str, tel : str, email : str, endereço : str)&lt;div&gt;+ ToString()&lt;/div&gt;&lt;div&gt;&amp;nbsp;&lt;/div&gt;" style="text;strokeColor=none;fillColor=none;align=left;verticalAlign=top;spacingLeft=4;spacingRight=4;overflow=hidden;rotatable=0;points=[[0,0.5],[1,0.5]];portConstraint=eastwest;whiteSpace=wrap;html=1;" vertex="1" parent="XV5S56shHWVsJy7ZyUxP-1">
          <mxGeometry y="208" width="630" height="42" as="geometry" />
        </mxCell>
        <mxCell id="XV5S56shHWVsJy7ZyUxP-6" value="Medidas" style="swimlane;fontStyle=1;align=center;verticalAlign=top;childLayout=stackLayout;horizontal=1;startSize=26;horizontalStack=0;resizeParent=1;resizeParentMax=0;resizeLast=0;collapsible=1;marginBottom=0;whiteSpace=wrap;html=1;" vertex="1" parent="1">
          <mxGeometry x="-140" y="241" width="160" height="344" as="geometry" />
        </mxCell>
        <mxCell id="XV5S56shHWVsJy7ZyUxP-7" value="- id&lt;div&gt;- id_cliente&lt;/div&gt;&lt;div&gt;- data&lt;/div&gt;&lt;div&gt;- peso&lt;/div&gt;&lt;div&gt;- altura&lt;/div&gt;&lt;div&gt;- torax_superior&lt;/div&gt;&lt;div&gt;- torax_inferior&lt;/div&gt;&lt;div&gt;- braço_direito&lt;/div&gt;&lt;div&gt;- braço_esquerdo&lt;/div&gt;&lt;div&gt;- antebraço_direito&lt;/div&gt;&lt;div&gt;- antebraço_esquerdo&lt;/div&gt;&lt;div&gt;- cintura&lt;/div&gt;&lt;div&gt;- quadril&lt;/div&gt;&lt;div&gt;- coxa_direita&lt;/div&gt;&lt;div&gt;- coxa_esquerda&lt;/div&gt;&lt;div&gt;- perna_direita&lt;/div&gt;&lt;div&gt;- perna_esquerda&lt;/div&gt;&lt;div&gt;- frequencia_cardiaca&lt;/div&gt;&lt;div&gt;- pressão&lt;/div&gt;" style="text;strokeColor=none;fillColor=none;align=left;verticalAlign=top;spacingLeft=4;spacingRight=4;overflow=hidden;rotatable=0;points=[[0,0.5],[1,0.5]];portConstraint=eastwest;whiteSpace=wrap;html=1;" vertex="1" parent="XV5S56shHWVsJy7ZyUxP-6">
          <mxGeometry y="26" width="160" height="284" as="geometry" />
        </mxCell>
        <mxCell id="XV5S56shHWVsJy7ZyUxP-8" value="" style="line;strokeWidth=1;fillColor=none;align=left;verticalAlign=middle;spacingTop=-1;spacingLeft=3;spacingRight=3;rotatable=0;labelPosition=right;points=[];portConstraint=eastwest;strokeColor=inherit;" vertex="1" parent="XV5S56shHWVsJy7ZyUxP-6">
          <mxGeometry y="310" width="160" height="8" as="geometry" />
        </mxCell>
        <mxCell id="XV5S56shHWVsJy7ZyUxP-9" value="+ Medidas()" style="text;strokeColor=none;fillColor=none;align=left;verticalAlign=top;spacingLeft=4;spacingRight=4;overflow=hidden;rotatable=0;points=[[0,0.5],[1,0.5]];portConstraint=eastwest;whiteSpace=wrap;html=1;" vertex="1" parent="XV5S56shHWVsJy7ZyUxP-6">
          <mxGeometry y="318" width="160" height="26" as="geometry" />
        </mxCell>
        <mxCell id="XV5S56shHWVsJy7ZyUxP-10" value="anual" style="swimlane;fontStyle=1;align=center;verticalAlign=top;childLayout=stackLayout;horizontal=1;startSize=26;horizontalStack=0;resizeParent=1;resizeParentMax=0;resizeLast=0;collapsible=1;marginBottom=0;whiteSpace=wrap;html=1;" vertex="1" parent="1">
          <mxGeometry x="870" y="330" width="160" height="134" as="geometry" />
        </mxCell>
        <mxCell id="XV5S56shHWVsJy7ZyUxP-11" value="- id&lt;div&gt;- ID_cliente&lt;/div&gt;&lt;div&gt;- ano_virgente&lt;/div&gt;&lt;div&gt;- validade&lt;/div&gt;" style="text;strokeColor=none;fillColor=none;align=left;verticalAlign=top;spacingLeft=4;spacingRight=4;overflow=hidden;rotatable=0;points=[[0,0.5],[1,0.5]];portConstraint=eastwest;whiteSpace=wrap;html=1;" vertex="1" parent="XV5S56shHWVsJy7ZyUxP-10">
          <mxGeometry y="26" width="160" height="74" as="geometry" />
        </mxCell>
        <mxCell id="XV5S56shHWVsJy7ZyUxP-12" value="" style="line;strokeWidth=1;fillColor=none;align=left;verticalAlign=middle;spacingTop=-1;spacingLeft=3;spacingRight=3;rotatable=0;labelPosition=right;points=[];portConstraint=eastwest;strokeColor=inherit;" vertex="1" parent="XV5S56shHWVsJy7ZyUxP-10">
          <mxGeometry y="100" width="160" height="8" as="geometry" />
        </mxCell>
        <mxCell id="XV5S56shHWVsJy7ZyUxP-13" value="+ method(type): type" style="text;strokeColor=none;fillColor=none;align=left;verticalAlign=top;spacingLeft=4;spacingRight=4;overflow=hidden;rotatable=0;points=[[0,0.5],[1,0.5]];portConstraint=eastwest;whiteSpace=wrap;html=1;" vertex="1" parent="XV5S56shHWVsJy7ZyUxP-10">
          <mxGeometry y="108" width="160" height="26" as="geometry" />
        </mxCell>
        <mxCell id="XV5S56shHWVsJy7ZyUxP-14" value="pagamento" style="swimlane;fontStyle=1;align=center;verticalAlign=top;childLayout=stackLayout;horizontal=1;startSize=26;horizontalStack=0;resizeParent=1;resizeParentMax=0;resizeLast=0;collapsible=1;marginBottom=0;whiteSpace=wrap;html=1;" vertex="1" parent="1">
          <mxGeometry x="870" y="560" width="320" height="160" as="geometry" />
        </mxCell>
        <mxCell id="XV5S56shHWVsJy7ZyUxP-15" value="- id&lt;div&gt;- Id_cliente&lt;/div&gt;&lt;div&gt;- data&lt;/div&gt;&lt;div&gt;- mes_referente&lt;/div&gt;&lt;div&gt;- valor&lt;/div&gt;" style="text;strokeColor=none;fillColor=none;align=left;verticalAlign=top;spacingLeft=4;spacingRight=4;overflow=hidden;rotatable=0;points=[[0,0.5],[1,0.5]];portConstraint=eastwest;whiteSpace=wrap;html=1;" vertex="1" parent="XV5S56shHWVsJy7ZyUxP-14">
          <mxGeometry y="26" width="320" height="84" as="geometry" />
        </mxCell>
        <mxCell id="XV5S56shHWVsJy7ZyUxP-16" value="" style="line;strokeWidth=1;fillColor=none;align=left;verticalAlign=middle;spacingTop=-1;spacingLeft=3;spacingRight=3;rotatable=0;labelPosition=right;points=[];portConstraint=eastwest;strokeColor=inherit;" vertex="1" parent="XV5S56shHWVsJy7ZyUxP-14">
          <mxGeometry y="110" width="320" height="8" as="geometry" />
        </mxCell>
        <mxCell id="XV5S56shHWVsJy7ZyUxP-17" value="- pagamento(id : int, c : int, data : str, mr : str, valor : float)" style="text;strokeColor=none;fillColor=none;align=left;verticalAlign=top;spacingLeft=4;spacingRight=4;overflow=hidden;rotatable=0;points=[[0,0.5],[1,0.5]];portConstraint=eastwest;whiteSpace=wrap;html=1;" vertex="1" parent="XV5S56shHWVsJy7ZyUxP-14">
          <mxGeometry y="118" width="320" height="42" as="geometry" />
        </mxCell>
        <mxCell id="XV5S56shHWVsJy7ZyUxP-19" value="treino" style="swimlane;fontStyle=1;align=center;verticalAlign=top;childLayout=stackLayout;horizontal=1;startSize=26;horizontalStack=0;resizeParent=1;resizeParentMax=0;resizeLast=0;collapsible=1;marginBottom=0;whiteSpace=wrap;html=1;" vertex="1" parent="1">
          <mxGeometry x="-140" y="620" width="160" height="124" as="geometry" />
        </mxCell>
        <mxCell id="XV5S56shHWVsJy7ZyUxP-20" value="- id&lt;div&gt;- ID_cliente&lt;/div&gt;&lt;div&gt;- treino&lt;/div&gt;" style="text;strokeColor=none;fillColor=none;align=left;verticalAlign=top;spacingLeft=4;spacingRight=4;overflow=hidden;rotatable=0;points=[[0,0.5],[1,0.5]];portConstraint=eastwest;whiteSpace=wrap;html=1;" vertex="1" parent="XV5S56shHWVsJy7ZyUxP-19">
          <mxGeometry y="26" width="160" height="64" as="geometry" />
        </mxCell>
        <mxCell id="XV5S56shHWVsJy7ZyUxP-21" value="" style="line;strokeWidth=1;fillColor=none;align=left;verticalAlign=middle;spacingTop=-1;spacingLeft=3;spacingRight=3;rotatable=0;labelPosition=right;points=[];portConstraint=eastwest;strokeColor=inherit;" vertex="1" parent="XV5S56shHWVsJy7ZyUxP-19">
          <mxGeometry y="90" width="160" height="8" as="geometry" />
        </mxCell>
        <mxCell id="XV5S56shHWVsJy7ZyUxP-22" value="+ method(type): type" style="text;strokeColor=none;fillColor=none;align=left;verticalAlign=top;spacingLeft=4;spacingRight=4;overflow=hidden;rotatable=0;points=[[0,0.5],[1,0.5]];portConstraint=eastwest;whiteSpace=wrap;html=1;" vertex="1" parent="XV5S56shHWVsJy7ZyUxP-19">
          <mxGeometry y="98" width="160" height="26" as="geometry" />
        </mxCell>
        <mxCell id="XV5S56shHWVsJy7ZyUxP-24" value="modelo" style="swimlane;fontStyle=1;align=center;verticalAlign=top;childLayout=stackLayout;horizontal=1;startSize=26;horizontalStack=0;resizeParent=1;resizeParentMax=0;resizeLast=0;collapsible=1;marginBottom=0;whiteSpace=wrap;html=1;" vertex="1" parent="1">
          <mxGeometry x="365" y="585" width="160" height="170" as="geometry" />
        </mxCell>
        <mxCell id="XV5S56shHWVsJy7ZyUxP-25" value="- objetos" style="text;strokeColor=none;fillColor=none;align=left;verticalAlign=top;spacingLeft=4;spacingRight=4;overflow=hidden;rotatable=0;points=[[0,0.5],[1,0.5]];portConstraint=eastwest;whiteSpace=wrap;html=1;" vertex="1" parent="XV5S56shHWVsJy7ZyUxP-24">
          <mxGeometry y="26" width="160" height="26" as="geometry" />
        </mxCell>
        <mxCell id="XV5S56shHWVsJy7ZyUxP-26" value="" style="line;strokeWidth=1;fillColor=none;align=left;verticalAlign=middle;spacingTop=-1;spacingLeft=3;spacingRight=3;rotatable=0;labelPosition=right;points=[];portConstraint=eastwest;strokeColor=inherit;" vertex="1" parent="XV5S56shHWVsJy7ZyUxP-24">
          <mxGeometry y="52" width="160" height="8" as="geometry" />
        </mxCell>
        <mxCell id="XV5S56shHWVsJy7ZyUxP-27" value="+ inserir()&lt;div&gt;+ listar()&lt;/div&gt;&lt;div&gt;+ buscar_id()&lt;/div&gt;&lt;div&gt;+ atualizar()&lt;/div&gt;&lt;div&gt;+ excluir()&lt;/div&gt;&lt;div&gt;+ abrir()&lt;/div&gt;&lt;div&gt;+ salvar()&lt;/div&gt;" style="text;strokeColor=none;fillColor=none;align=left;verticalAlign=top;spacingLeft=4;spacingRight=4;overflow=hidden;rotatable=0;points=[[0,0.5],[1,0.5]];portConstraint=eastwest;whiteSpace=wrap;html=1;" vertex="1" parent="XV5S56shHWVsJy7ZyUxP-24">
          <mxGeometry y="60" width="160" height="110" as="geometry" />
        </mxCell>
        <mxCell id="XV5S56shHWVsJy7ZyUxP-32" value="pagamentos" style="swimlane;fontStyle=0;childLayout=stackLayout;horizontal=1;startSize=26;fillColor=none;horizontalStack=0;resizeParent=1;resizeParentMax=0;resizeLast=0;collapsible=1;marginBottom=0;whiteSpace=wrap;html=1;" vertex="1" parent="1">
          <mxGeometry x="615" y="795" width="140" height="78" as="geometry" />
        </mxCell>
        <mxCell id="XV5S56shHWVsJy7ZyUxP-33" value="+ abrir" style="text;strokeColor=none;fillColor=none;align=left;verticalAlign=top;spacingLeft=4;spacingRight=4;overflow=hidden;rotatable=0;points=[[0,0.5],[1,0.5]];portConstraint=eastwest;whiteSpace=wrap;html=1;" vertex="1" parent="XV5S56shHWVsJy7ZyUxP-32">
          <mxGeometry y="26" width="140" height="26" as="geometry" />
        </mxCell>
        <mxCell id="XV5S56shHWVsJy7ZyUxP-34" value="+ salvar" style="text;strokeColor=none;fillColor=none;align=left;verticalAlign=top;spacingLeft=4;spacingRight=4;overflow=hidden;rotatable=0;points=[[0,0.5],[1,0.5]];portConstraint=eastwest;whiteSpace=wrap;html=1;" vertex="1" parent="XV5S56shHWVsJy7ZyUxP-32">
          <mxGeometry y="52" width="140" height="26" as="geometry" />
        </mxCell>
        <mxCell id="XV5S56shHWVsJy7ZyUxP-35" value="treinos" style="swimlane;fontStyle=0;childLayout=stackLayout;horizontal=1;startSize=26;fillColor=none;horizontalStack=0;resizeParent=1;resizeParentMax=0;resizeLast=0;collapsible=1;marginBottom=0;whiteSpace=wrap;html=1;" vertex="1" parent="1">
          <mxGeometry x="375" y="795" width="140" height="78" as="geometry" />
        </mxCell>
        <mxCell id="XV5S56shHWVsJy7ZyUxP-36" value="+ abrir" style="text;strokeColor=none;fillColor=none;align=left;verticalAlign=top;spacingLeft=4;spacingRight=4;overflow=hidden;rotatable=0;points=[[0,0.5],[1,0.5]];portConstraint=eastwest;whiteSpace=wrap;html=1;" vertex="1" parent="XV5S56shHWVsJy7ZyUxP-35">
          <mxGeometry y="26" width="140" height="26" as="geometry" />
        </mxCell>
        <mxCell id="XV5S56shHWVsJy7ZyUxP-37" value="+ salvar" style="text;strokeColor=none;fillColor=none;align=left;verticalAlign=top;spacingLeft=4;spacingRight=4;overflow=hidden;rotatable=0;points=[[0,0.5],[1,0.5]];portConstraint=eastwest;whiteSpace=wrap;html=1;" vertex="1" parent="XV5S56shHWVsJy7ZyUxP-35">
          <mxGeometry y="52" width="140" height="26" as="geometry" />
        </mxCell>
        <mxCell id="XV5S56shHWVsJy7ZyUxP-38" value="medidas" style="swimlane;fontStyle=0;childLayout=stackLayout;horizontal=1;startSize=26;fillColor=none;horizontalStack=0;resizeParent=1;resizeParentMax=0;resizeLast=0;collapsible=1;marginBottom=0;whiteSpace=wrap;html=1;" vertex="1" parent="1">
          <mxGeometry x="155" y="795" width="140" height="78" as="geometry" />
        </mxCell>
        <mxCell id="XV5S56shHWVsJy7ZyUxP-39" value="+ abrir" style="text;strokeColor=none;fillColor=none;align=left;verticalAlign=top;spacingLeft=4;spacingRight=4;overflow=hidden;rotatable=0;points=[[0,0.5],[1,0.5]];portConstraint=eastwest;whiteSpace=wrap;html=1;" vertex="1" parent="XV5S56shHWVsJy7ZyUxP-38">
          <mxGeometry y="26" width="140" height="26" as="geometry" />
        </mxCell>
        <mxCell id="XV5S56shHWVsJy7ZyUxP-40" value="+ salvar" style="text;strokeColor=none;fillColor=none;align=left;verticalAlign=top;spacingLeft=4;spacingRight=4;overflow=hidden;rotatable=0;points=[[0,0.5],[1,0.5]];portConstraint=eastwest;whiteSpace=wrap;html=1;" vertex="1" parent="XV5S56shHWVsJy7ZyUxP-38">
          <mxGeometry y="52" width="140" height="26" as="geometry" />
        </mxCell>
        <mxCell id="XV5S56shHWVsJy7ZyUxP-41" value="Clientes" style="swimlane;fontStyle=0;childLayout=stackLayout;horizontal=1;startSize=26;fillColor=none;horizontalStack=0;resizeParent=1;resizeParentMax=0;resizeLast=0;collapsible=1;marginBottom=0;whiteSpace=wrap;html=1;" vertex="1" parent="1">
          <mxGeometry x="155" y="677" width="140" height="78" as="geometry" />
        </mxCell>
        <mxCell id="XV5S56shHWVsJy7ZyUxP-42" value="+ abrir" style="text;strokeColor=none;fillColor=none;align=left;verticalAlign=top;spacingLeft=4;spacingRight=4;overflow=hidden;rotatable=0;points=[[0,0.5],[1,0.5]];portConstraint=eastwest;whiteSpace=wrap;html=1;" vertex="1" parent="XV5S56shHWVsJy7ZyUxP-41">
          <mxGeometry y="26" width="140" height="26" as="geometry" />
        </mxCell>
        <mxCell id="XV5S56shHWVsJy7ZyUxP-43" value="+ salvar" style="text;strokeColor=none;fillColor=none;align=left;verticalAlign=top;spacingLeft=4;spacingRight=4;overflow=hidden;rotatable=0;points=[[0,0.5],[1,0.5]];portConstraint=eastwest;whiteSpace=wrap;html=1;" vertex="1" parent="XV5S56shHWVsJy7ZyUxP-41">
          <mxGeometry y="52" width="140" height="26" as="geometry" />
        </mxCell>
        <mxCell id="XV5S56shHWVsJy7ZyUxP-44" value="anuais" style="swimlane;fontStyle=0;childLayout=stackLayout;horizontal=1;startSize=26;fillColor=none;horizontalStack=0;resizeParent=1;resizeParentMax=0;resizeLast=0;collapsible=1;marginBottom=0;whiteSpace=wrap;html=1;" vertex="1" parent="1">
          <mxGeometry x="615" y="677" width="140" height="78" as="geometry" />
        </mxCell>
        <mxCell id="XV5S56shHWVsJy7ZyUxP-45" value="+ abrir" style="text;strokeColor=none;fillColor=none;align=left;verticalAlign=top;spacingLeft=4;spacingRight=4;overflow=hidden;rotatable=0;points=[[0,0.5],[1,0.5]];portConstraint=eastwest;whiteSpace=wrap;html=1;" vertex="1" parent="XV5S56shHWVsJy7ZyUxP-44">
          <mxGeometry y="26" width="140" height="26" as="geometry" />
        </mxCell>
        <mxCell id="XV5S56shHWVsJy7ZyUxP-46" value="+ salvar" style="text;strokeColor=none;fillColor=none;align=left;verticalAlign=top;spacingLeft=4;spacingRight=4;overflow=hidden;rotatable=0;points=[[0,0.5],[1,0.5]];portConstraint=eastwest;whiteSpace=wrap;html=1;" vertex="1" parent="XV5S56shHWVsJy7ZyUxP-44">
          <mxGeometry y="52" width="140" height="26" as="geometry" />
        </mxCell>
        <mxCell id="XV5S56shHWVsJy7ZyUxP-50" style="rounded=0;orthogonalLoop=1;jettySize=auto;html=1;exitX=0;exitY=0.5;exitDx=0;exitDy=0;entryX=1.006;entryY=0.636;entryDx=0;entryDy=0;entryPerimeter=0;endArrow=classic;endFill=0;" edge="1" parent="1" source="XV5S56shHWVsJy7ZyUxP-45" target="XV5S56shHWVsJy7ZyUxP-27">
          <mxGeometry relative="1" as="geometry" />
        </mxCell>
        <mxCell id="XV5S56shHWVsJy7ZyUxP-51" style="edgeStyle=none;shape=connector;rounded=0;orthogonalLoop=1;jettySize=auto;html=1;exitX=0;exitY=0;exitDx=0;exitDy=0;entryX=0.988;entryY=1.027;entryDx=0;entryDy=0;entryPerimeter=0;strokeColor=default;align=center;verticalAlign=middle;fontFamily=Helvetica;fontSize=11;fontColor=default;labelBackgroundColor=default;endArrow=classic;endFill=0;" edge="1" parent="1" source="XV5S56shHWVsJy7ZyUxP-32" target="XV5S56shHWVsJy7ZyUxP-27">
          <mxGeometry relative="1" as="geometry" />
        </mxCell>
        <mxCell id="XV5S56shHWVsJy7ZyUxP-52" style="edgeStyle=none;shape=connector;rounded=0;orthogonalLoop=1;jettySize=auto;html=1;exitX=0.5;exitY=0;exitDx=0;exitDy=0;entryX=0.5;entryY=1;entryDx=0;entryDy=0;entryPerimeter=0;strokeColor=default;align=center;verticalAlign=middle;fontFamily=Helvetica;fontSize=11;fontColor=default;labelBackgroundColor=default;endArrow=classic;endFill=0;" edge="1" parent="1" source="XV5S56shHWVsJy7ZyUxP-35" target="XV5S56shHWVsJy7ZyUxP-27">
          <mxGeometry relative="1" as="geometry" />
        </mxCell>
        <mxCell id="XV5S56shHWVsJy7ZyUxP-53" style="edgeStyle=none;shape=connector;rounded=0;orthogonalLoop=1;jettySize=auto;html=1;exitX=1;exitY=0;exitDx=0;exitDy=0;entryX=0.031;entryY=0.991;entryDx=0;entryDy=0;entryPerimeter=0;strokeColor=default;align=center;verticalAlign=middle;fontFamily=Helvetica;fontSize=11;fontColor=default;labelBackgroundColor=default;endArrow=classic;endFill=0;" edge="1" parent="1" source="XV5S56shHWVsJy7ZyUxP-38" target="XV5S56shHWVsJy7ZyUxP-27">
          <mxGeometry relative="1" as="geometry" />
        </mxCell>
        <mxCell id="XV5S56shHWVsJy7ZyUxP-54" style="edgeStyle=none;shape=connector;rounded=0;orthogonalLoop=1;jettySize=auto;html=1;exitX=1;exitY=0.5;exitDx=0;exitDy=0;entryX=0.013;entryY=0.636;entryDx=0;entryDy=0;entryPerimeter=0;strokeColor=default;align=center;verticalAlign=middle;fontFamily=Helvetica;fontSize=11;fontColor=default;labelBackgroundColor=default;endArrow=classic;endFill=0;" edge="1" parent="1" source="XV5S56shHWVsJy7ZyUxP-42" target="XV5S56shHWVsJy7ZyUxP-27">
          <mxGeometry relative="1" as="geometry" />
        </mxCell>
        <mxCell id="XV5S56shHWVsJy7ZyUxP-55" style="edgeStyle=none;shape=connector;rounded=0;orthogonalLoop=1;jettySize=auto;html=1;exitX=1;exitY=0.5;exitDx=0;exitDy=0;entryX=-0.003;entryY=0.609;entryDx=0;entryDy=0;entryPerimeter=0;strokeColor=default;align=center;verticalAlign=middle;fontFamily=Helvetica;fontSize=11;fontColor=default;labelBackgroundColor=default;endArrow=none;endFill=0;startFill=0;" edge="1" parent="1" source="XV5S56shHWVsJy7ZyUxP-7" target="XV5S56shHWVsJy7ZyUxP-2">
          <mxGeometry relative="1" as="geometry" />
        </mxCell>
        <mxCell id="XV5S56shHWVsJy7ZyUxP-56" value="0...1" style="edgeLabel;html=1;align=center;verticalAlign=middle;resizable=0;points=[];fontFamily=Helvetica;fontSize=11;fontColor=default;labelBackgroundColor=default;" vertex="1" connectable="0" parent="XV5S56shHWVsJy7ZyUxP-55">
          <mxGeometry x="-0.7091" relative="1" as="geometry">
            <mxPoint as="offset" />
          </mxGeometry>
        </mxCell>
        <mxCell id="XV5S56shHWVsJy7ZyUxP-57" value="0...*" style="edgeLabel;html=1;align=center;verticalAlign=middle;resizable=0;points=[];fontFamily=Helvetica;fontSize=11;fontColor=default;labelBackgroundColor=default;" vertex="1" connectable="0" parent="XV5S56shHWVsJy7ZyUxP-55">
          <mxGeometry x="0.4437" y="-1" relative="1" as="geometry">
            <mxPoint x="6" as="offset" />
          </mxGeometry>
        </mxCell>
        <mxCell id="XV5S56shHWVsJy7ZyUxP-58" style="edgeStyle=none;shape=connector;rounded=0;orthogonalLoop=1;jettySize=auto;html=1;exitX=0;exitY=0.5;exitDx=0;exitDy=0;entryX=1;entryY=0.5;entryDx=0;entryDy=0;strokeColor=default;align=center;verticalAlign=middle;fontFamily=Helvetica;fontSize=11;fontColor=default;labelBackgroundColor=default;endArrow=none;endFill=0;startFill=0;" edge="1" parent="1" source="XV5S56shHWVsJy7ZyUxP-11" target="XV5S56shHWVsJy7ZyUxP-2">
          <mxGeometry relative="1" as="geometry" />
        </mxCell>
        <mxCell id="XV5S56shHWVsJy7ZyUxP-67" value="1" style="edgeLabel;html=1;align=center;verticalAlign=middle;resizable=0;points=[];fontFamily=Helvetica;fontSize=11;fontColor=default;labelBackgroundColor=default;" vertex="1" connectable="0" parent="XV5S56shHWVsJy7ZyUxP-58">
          <mxGeometry x="-0.66" relative="1" as="geometry">
            <mxPoint y="-1" as="offset" />
          </mxGeometry>
        </mxCell>
        <mxCell id="XV5S56shHWVsJy7ZyUxP-68" value="1...*" style="edgeLabel;html=1;align=center;verticalAlign=middle;resizable=0;points=[];fontFamily=Helvetica;fontSize=11;fontColor=default;labelBackgroundColor=default;" vertex="1" connectable="0" parent="XV5S56shHWVsJy7ZyUxP-58">
          <mxGeometry x="0.64" y="-2" relative="1" as="geometry">
            <mxPoint as="offset" />
          </mxGeometry>
        </mxCell>
        <mxCell id="XV5S56shHWVsJy7ZyUxP-59" style="edgeStyle=none;shape=connector;rounded=0;orthogonalLoop=1;jettySize=auto;html=1;exitX=0;exitY=0;exitDx=0;exitDy=0;entryX=1;entryY=1;entryDx=0;entryDy=0;entryPerimeter=0;strokeColor=default;align=center;verticalAlign=middle;fontFamily=Helvetica;fontSize=11;fontColor=default;labelBackgroundColor=default;startFill=0;endArrow=none;endFill=0;" edge="1" parent="1" source="XV5S56shHWVsJy7ZyUxP-14" target="XV5S56shHWVsJy7ZyUxP-4">
          <mxGeometry relative="1" as="geometry" />
        </mxCell>
        <mxCell id="XV5S56shHWVsJy7ZyUxP-65" value="0...*" style="edgeLabel;html=1;align=center;verticalAlign=middle;resizable=0;points=[];fontFamily=Helvetica;fontSize=11;fontColor=default;labelBackgroundColor=default;" vertex="1" connectable="0" parent="XV5S56shHWVsJy7ZyUxP-59">
          <mxGeometry x="-0.3535" y="2" relative="1" as="geometry">
            <mxPoint x="-47" y="-16" as="offset" />
          </mxGeometry>
        </mxCell>
        <mxCell id="XV5S56shHWVsJy7ZyUxP-66" value="1" style="edgeLabel;html=1;align=center;verticalAlign=middle;resizable=0;points=[];fontFamily=Helvetica;fontSize=11;fontColor=default;labelBackgroundColor=default;" vertex="1" connectable="0" parent="XV5S56shHWVsJy7ZyUxP-59">
          <mxGeometry x="-0.3046" y="-1" relative="1" as="geometry">
            <mxPoint x="22" y="7" as="offset" />
          </mxGeometry>
        </mxCell>
        <mxCell id="XV5S56shHWVsJy7ZyUxP-60" style="edgeStyle=none;shape=connector;rounded=0;orthogonalLoop=1;jettySize=auto;html=1;exitX=1;exitY=0;exitDx=0;exitDy=0;entryX=0.003;entryY=0.982;entryDx=0;entryDy=0;entryPerimeter=0;strokeColor=default;align=center;verticalAlign=middle;fontFamily=Helvetica;fontSize=11;fontColor=default;labelBackgroundColor=default;startFill=0;endArrow=none;endFill=0;" edge="1" parent="1" source="XV5S56shHWVsJy7ZyUxP-19" target="XV5S56shHWVsJy7ZyUxP-4">
          <mxGeometry relative="1" as="geometry" />
        </mxCell>
      </root>
    </mxGraphModel>
  </diagram>
</mxfile>
